<?xml version="1.0" standalone="no"?>
<!DOCTYPE svg PUBLIC "-//W3C//DTD SVG 20010904//EN"
 "http://www.w3.org/TR/2001/REC-SVG-20010904/DTD/svg10.dtd">
<svg version="1.0" xmlns="http://www.w3.org/2000/svg"
 width="500.000000pt" height="500.000000pt" viewBox="0 0 500.000000 500.000000"
 preserveAspectRatio="xMidYMid meet">

<g transform="translate(0.000000,500.000000) scale(0.100000,-0.100000)"
fill="#ffffff" stroke="none">
<path d="M2260 3905 c-281 -59 -512 -217 -650 -444 -97 -163 -135 -389 -92
-560 12 -45 38 -116 57 -158 60 -124 202 -250 344 -304 66 -25 253 -38 572
-38 234 -1 276 -10 338 -74 56 -57 78 -128 61 -198 -38 -158 -193 -224 -469
-201 -136 12 -203 32 -250 75 -38 36 -75 91 -83 124 l-6 22 258 3 c258 3 258
3 284 27 41 39 34 88 -18 120 -30 19 -54 20 -532 22 -373 1 -506 -1 -523 -10
-31 -17 -61 -70 -61 -107 0 -61 31 -197 66 -281 62 -156 188 -305 340 -403
109 -71 173 -101 293 -137 81 -25 99 -26 306 -27 240 -1 278 5 440 71 284 116
517 414 556 711 19 140 -3 261 -73 412 -40 84 -167 212 -253 254 -168 82 -292
99 -695 94 -261 -2 -271 0 -325 64 -77 91 -74 211 8 291 59 56 133 88 233 99
111 13 294 -2 356 -30 77 -34 158 -119 158 -167 0 -13 -31 -15 -251 -15 l-251
0 -29 -29 c-39 -39 -38 -71 5 -109 l34 -29 503 -5 c542 -5 539 -6 573 46 20
32 21 113 1 189 -96 368 -369 623 -751 702 -93 19 -381 19 -474 0z m390 -165
c212 -24 412 -137 528 -296 48 -65 121 -219 129 -271 l6 -33 -106 0 -106 0
-10 35 c-16 58 -76 157 -126 207 -59 58 -187 124 -280 143 -93 19 -286 19
-383 -1 -94 -19 -210 -78 -274 -141 -104 -102 -151 -261 -113 -386 37 -122
102 -195 214 -239 52 -20 78 -22 396 -29 371 -7 428 -14 519 -62 91 -49 149
-112 201 -219 60 -124 74 -215 52 -343 -49 -282 -292 -510 -596 -561 -197 -32
-486 -1 -616 67 -149 78 -265 187 -332 315 -36 68 -73 177 -73 213 0 8 32 11
106 9 l106 -3 19 -61 c50 -162 171 -272 354 -320 102 -26 373 -27 465 0 88 26
177 73 221 119 53 53 117 166 130 228 35 163 -57 336 -224 420 -80 41 -169 49
-489 48 -350 -2 -406 10 -516 115 -67 63 -116 136 -144 213 -25 71 -30 229 -9
313 14 55 82 203 104 225 7 6 26 27 42 46 108 122 279 214 455 244 93 16 237
18 350 5z"/>
</g>
</svg>
